<?xml version="1.0" encoding="iso-8859-1"?>
<!-- Uploaded to: SVG Repo, www.svgrepo.com, Generator: SVG Repo Mixer Tools -->
<svg fill="#000000" height="800px" width="800px" version="1.1" id="Layer_1" xmlns="http://www.w3.org/2000/svg" xmlns:xlink="http://www.w3.org/1999/xlink" 
	 viewBox="0 0 502.4 502.4" xml:space="preserve">
<g>
	<g>
		<path d="M480.766,336h-69.333L306.9,226.133l176-106.667c5.333-3.2,8.533-8.533,9.6-14.933c0-6.4-2.133-12.8-6.4-17.067
			L453.033,54.4c-5.333-5.333-12.8-7.467-20.267-5.333l-236.8,59.733l-78.933-84.267l-1.067-1.067C99.966,8.534,79.7,0,59.433,0
			c-16,0-32,6.4-42.667,17.067C-7.767,42.667-4.567,86.4,24.233,117.333L25.3,118.4l83.2,78.933c0,1.067-1.067,2.133-1.067,2.133
			l-60.8,236.8c-2.133,7.467,0,14.933,5.333,20.267L85.033,489.6c4.267,4.267,9.6,6.4,14.933,6.4c0,0,1.067,0,2.133-1.067
			c6.4,0,11.733-4.267,14.933-9.6L224.766,307.2l112,105.6v68.267c0,11.733,9.6,21.333,21.333,21.333s20.267-9.6,21.333-21.333
			v-40.533c4.267,1.067,8.533,1.067,12.8,1.067c13.867,0,25.6-5.333,34.133-16c11.733-11.733,16-29.867,12.8-46.933h41.6
			c11.733,0,21.333-8.533,21.333-21.333C502.1,345.6,492.5,336,480.766,336z M431.7,91.733l6.4,6.4l-161.067,96l-48-51.2
			L431.7,91.733z M95.7,441.6l-6.4-6.4l53.333-205.867l51.2,48L95.7,441.6z M397.566,396.8c-1.067,2.133-3.2,2.133-5.333,2.133
			c-4.267,0-9.6-2.133-12.8-5.333L55.166,88.534C40.233,73.6,39.166,55.467,46.633,48c4.267-4.267,9.6-5.333,13.867-5.333
			c9.6,0,20.267,4.267,27.733,12.8L393.3,377.601C399.7,385.067,400.766,393.6,397.566,396.8z"/>
	</g>
</g>
</svg>