<?xml version="1.0" encoding="iso-8859-1"?>
<!-- Uploaded to: SVG Repo, www.svgrepo.com, Generator: SVG Repo Mixer Tools -->
<svg fill="#000000" height="800px" width="800px" version="1.1" id="Layer_1" xmlns="http://www.w3.org/2000/svg" xmlns:xlink="http://www.w3.org/1999/xlink" 
	 viewBox="0 0 512 512" xml:space="preserve">
<g>
	<g>
		<g>
			<path d="M379.458,107.009h-41.252V52.681h4.41c14.524,0,26.34-11.816,26.34-26.34C368.955,11.816,357.139,0,342.615,0h-132.85
				c-14.524,0-26.34,11.816-26.34,26.34s11.816,26.34,26.34,26.34h4.41v54.329h-41.252c-19.297,0-34.996,15.7-34.996,34.996v104.976
				c-11.706-1.439-26.192,5.442-32.799,12.049c-10.11,10.11-10.11,26.562,0,36.672c4.898,4.897,11.41,7.596,18.337,7.596
				c5.23,0,10.222-1.539,14.462-4.401v140.017c0,19.297,15.7,34.996,34.996,34.996h6.157v19.19c0,10.421,8.478,18.9,18.9,18.9
				h21.595c10.421,0,18.9-8.478,18.9-18.9v-19.19h75.432v19.19c0,10.421,8.478,18.9,18.9,18.9h21.595c10.421,0,18.9-8.478,18.9-18.9
				v-19.19h6.163c19.297,0,34.996-15.7,34.996-34.996V142.006C414.453,122.709,398.754,107.009,379.458,107.009z M130.383,284.286
				c-1.848,1.848-4.305,2.866-6.92,2.866c-2.615,0-5.072-1.018-6.92-2.866c-3.816-3.816-3.816-10.024,0-13.84
				c4.809-4.809,14.012-7.589,18.5-7.589c1.15,0,1.991,0.182,2.368,0.561c0.271,0.271,0.439,0.786,0.513,1.478v1.947h0.001
				C137.554,271.597,134.842,279.828,130.383,284.286z M209.764,36.536c-5.622,0-10.195-4.573-10.195-10.195
				s4.573-10.195,10.195-10.195h132.85c5.622,0,10.195,4.573,10.195,10.195s-4.573,10.195-10.195,10.195H209.764z M322.061,52.681
				v54.329h-10.48V52.681H322.061z M295.434,52.681v54.329h-38.489V52.681H295.434z M240.8,52.681v54.329h-10.48V52.681H240.8z
				 M172.922,457.765c-10.394,0-18.851-8.457-18.851-18.851v-4.839c11.633,2.944,20.867,12.089,23.924,23.69H172.922z
				 M219.571,495.855h-21.595c-1.519,0-2.754-1.236-2.754-2.754v-19.19h27.102v19.19h0.001
				C222.325,494.619,221.091,495.855,219.571,495.855z M354.395,495.855H332.8c-1.519,0-2.754-1.236-2.754-2.754v-19.19h27.102
				v19.19h0.001C357.15,494.619,355.915,495.855,354.395,495.855z M398.308,438.914c0,10.394-8.456,18.851-18.851,18.851h-5.074
				c3.057-11.601,12.291-20.747,23.925-23.69V438.914z M398.309,417.603h-0.001c-20.528,3.423-36.867,19.652-40.424,40.163H194.494
				c-3.556-20.511-19.894-36.74-40.423-40.163V142.006c0-10.394,8.457-18.851,18.851-18.851h206.536
				c10.394,0,18.851,8.457,18.851,18.851V417.603z"/>
			<path d="M338.557,287.153H213.822c-4.459,0-8.073,3.614-8.073,8.073c0,4.458,3.613,8.073,8.073,8.073h124.735
				c4.459,0,8.073-3.614,8.073-8.073C346.629,290.768,343.015,287.153,338.557,287.153z"/>
			<path d="M338.557,331.248H213.822c-4.459,0-8.073,3.614-8.073,8.073c0,4.458,3.613,8.073,8.073,8.073h124.735
				c4.459,0,8.073-3.614,8.073-8.073S343.015,331.248,338.557,331.248z"/>
			<path d="M338.557,375.344H213.822c-4.459,0-8.073,3.614-8.073,8.073c0,4.458,3.613,8.073,8.073,8.073h124.735
				c4.459,0,8.073-3.614,8.073-8.073C346.629,378.958,343.015,375.344,338.557,375.344z"/>
			<path d="M255.606,220.414h41.167c4.459,0,8.073-3.614,8.073-8.073c0-4.458-3.613-8.073-8.073-8.073h-41.167
				c-4.459,0-8.073,3.614-8.073,8.073C247.533,216.8,251.148,220.414,255.606,220.414z"/>
			<path d="M276.189,251.33c34.776,0,62.016-17.126,62.016-38.99c0-21.863-27.241-38.989-62.016-38.989
				s-62.015,17.126-62.015,38.988C214.174,234.205,241.414,251.33,276.189,251.33z M276.189,189.498
				c27.032,0,45.871,12.039,45.871,22.843c0,10.805-18.838,22.844-45.871,22.844c-27.031,0-45.87-12.039-45.87-22.844
				C230.319,201.537,249.158,189.498,276.189,189.498z"/>
		</g>
	</g>
</g>
</svg>