<?xml version="1.0" encoding="UTF-8" standalone="no"?>
<!DOCTYPE svg PUBLIC "-//W3C//DTD SVG 1.1//EN" "http://www.w3.org/Graphics/SVG/1.1/DTD/svg11.dtd">
<svg version="1.1" xmlns="http://www.w3.org/2000/svg" xmlns:xlink="http://www.w3.org/1999/xlink" preserveAspectRatio="xMidYMid meet" viewBox="0 0 640 640" width="640" height="640"><defs><path d="M581.84 282.3C606.13 453.49 496.08 610.41 339.44 632.74C181.3 654.99 33.73 534.45 9.79 363.62C-14.11 192.68 94.48 36.15 252.4 13.9C410.58 -8.32 558.26 112.19 582.19 283.02C582.12 282.87 581.91 282.45 581.84 282.3Z" id="baJUVuusM"></path><path d="M389.58 632.7C228.98 655.21 78.93 533.29 54.58 360.48C30.24 187.66 140.77 29.27 301.43 6.8C462.14 -15.68 612.3 106.21 636.65 278.99C660.95 451.88 550.54 610.12 389.58 632.7Z" id="b2sQp7a3i"></path><path d="M380.57 567.4C254.08 585.23 136.17 488.94 116.88 351.99C97.94 214.68 184.77 89.86 311.25 72.03C437.74 54.55 555.61 150.99 574.58 287.79C592.45 424.39 506.7 549.57 380.57 567.4Z" id="dbuz1gMeq"></path><path d="M336.69 129.82L340.78 130.17L344.9 130.67L349.03 131.31L353.19 132.09L357.36 133.02L361.56 134.09L365.76 135.3L369.98 136.66L374.21 138.17L378.45 139.81L380.48 140.5L382.47 141.2L384.41 141.91L386.31 142.63L388.16 143.35L389.97 144.09L391.73 144.83L393.44 145.58L395.11 146.34L396.72 147.11L398.3 147.88L399.82 148.67L401.29 149.46L402.72 150.26L404.09 151.08L405.42 151.9L406.69 152.73L407.91 153.57L409.08 154.41L410.2 155.27L411.27 156.13L412.29 157.01L413.25 157.89L414.16 158.79L415.01 159.69L415.81 160.6L416.55 161.52L417.24 162.45L417.88 163.39L418.45 164.34L418.97 165.29L419.44 166.26L419.84 167.24L420.19 168.22L420.48 169.22L420.71 170.22L420.88 171.24L420.99 172.26L421.05 173.3L421.04 174.34L421.03 176.8L420.88 179.1L420.59 181.23L420.16 183.19L419.61 185.01L418.93 186.67L418.14 188.19L417.24 189.56L416.23 190.81L415.13 191.92L413.94 192.91L412.67 193.77L411.32 194.52L409.9 195.16L408.42 195.7L406.88 196.14L405.29 196.48L403.66 196.73L401.99 196.9L400.29 196.98L398.56 196.99L396.82 196.93L395.07 196.81L393.31 196.63L391.55 196.39L389.8 196.1L388.07 195.76L386.36 195.39L384.67 194.98L383.02 194.54L381.41 194.08L379.85 193.6L378.34 193.1L376.89 192.59L375.51 192.08L374.2 191.57L372.98 191.06L371.83 190.57L370.79 190.09L369.84 189.63L362.61 186.21L355.59 183.41L348.78 181.22L342.19 179.59L335.83 178.52L329.7 177.97L323.8 177.92L318.16 178.35L312.76 179.24L307.63 180.55L302.76 182.28L298.17 184.39L293.86 186.86L289.83 189.66L286.1 192.78L282.67 196.19L279.54 199.86L276.74 203.77L274.25 207.9L272.09 212.23L270.27 216.72L268.79 221.37L267.65 226.13L266.88 231L266.46 235.94L266.42 240.94L266.75 245.96L267.46 250.98L268.57 255.99L270.07 260.96L271.97 265.86L274.28 270.66L277.02 275.36L280.17 279.92L283.76 284.31L287.79 288.53L292.26 292.53L297.18 296.3L302.56 299.81L308.4 303.05L371.86 345.48L373.56 346.57L375.16 347.76L376.64 349.03L378.02 350.38L379.3 351.8L380.48 353.3L381.56 354.86L382.56 356.49L383.47 358.16L384.29 359.89L385.04 361.67L385.71 363.48L386.32 365.33L386.85 367.22L387.32 369.12L387.72 371.05L388.07 372.99L388.37 374.95L388.62 376.9L388.82 378.86L388.98 380.82L389.1 382.76L389.19 384.69L389.24 386.6L389.27 388.49L389.28 390.34L389.26 392.17L389.23 393.95L389.18 395.68L389.13 397.37L389.07 399L389.01 400.58L388.95 402.08L388.9 403.52L388.85 404.88L388.82 406.17L388.81 407.36L388.82 408.47L388.85 409.49L388.91 410.4L388.9 411.52L388.86 412.63L388.79 413.74L388.68 414.84L388.53 415.93L388.35 417.02L388.14 418.09L387.89 419.15L387.61 420.19L387.29 421.23L386.95 422.25L386.57 423.25L386.16 424.24L385.72 425.22L385.25 426.17L384.75 427.11L384.22 428.03L383.66 428.93L383.08 429.81L382.46 430.67L381.81 431.51L381.14 432.32L380.44 433.11L379.72 433.87L378.96 434.61L378.19 435.32L377.38 436L376.55 436.66L375.7 437.29L374.82 437.88L373.92 438.45L373 438.98L372.05 439.49L371.08 439.95L370.09 440.39L369.07 440.79L368.04 441.15L366.98 441.48L365.9 441.77L364.81 442.02L364.28 442.1L363.76 442.16L363.23 442.21L362.71 442.24L362.19 442.26L361.68 442.27L361.16 442.26L360.65 442.24L360.13 442.2L359.62 442.15L359.11 442.09L358.61 442.01L358.1 441.91L357.59 441.81L357.09 441.69L356.58 441.55L356.08 441.41L355.58 441.25L355.08 441.07L354.58 440.88L354.08 440.68L353.58 440.46L353.09 440.24L352.59 439.99L352.09 439.74L351.6 439.47L351.1 439.19L350.61 438.89L350.12 438.58L349.62 438.26L349.13 437.93L348.63 437.58L348.14 437.22L347.65 436.85L347.16 436.46L346.66 436.06L346.17 435.65L345.68 435.22L345.18 434.79L344.69 434.34L344 432.52L343.37 430.7L342.81 428.87L342.3 427.04L341.85 425.2L341.44 423.36L341.08 421.52L340.75 419.68L340.47 417.84L340.21 416L339.97 414.18L339.76 412.36L339.57 410.55L339.38 408.75L339.21 406.97L339.04 405.2L338.87 403.44L338.69 401.71L338.5 399.99L338.3 398.3L338.07 396.62L337.83 394.98L337.55 393.36L337.25 391.76L336.91 390.2L336.52 388.67L336.09 387.17L335.61 385.71L335.07 384.28L334.48 382.9L333.82 381.55L333.09 380.24L332.29 378.98L331.42 377.76L330.46 376.59L329.41 375.47L328.28 374.39L327.04 373.37L325.71 372.41L324.28 371.49L318.62 368.13L312.99 364.78L307.38 361.41L301.82 358.04L296.31 354.66L290.87 351.26L285.52 347.83L280.25 344.37L275.09 340.87L270.05 337.34L265.14 333.76L260.38 330.12L255.77 326.43L251.32 322.68L247.06 318.86L242.99 314.97L239.13 311L235.48 306.95L232.07 302.8L228.89 298.57L225.97 294.23L223.32 289.79L220.95 285.24L218.87 280.57L217.1 275.78L215.64 270.87L214.51 265.82L213.73 260.64L213.3 255.32L213.24 249.85L213.55 244.22L214.26 238.44L215.37 232.49L216.9 226.38L218.86 220.09L221.26 213.62L224.12 206.97L227.44 200.13L231.24 193.09L235.53 185.85L237.94 181.91L240.44 178.11L243.02 174.46L245.68 170.95L248.41 167.58L251.23 164.35L254.12 161.27L257.08 158.33L260.12 155.53L263.22 152.88L266.39 150.36L269.63 148L272.93 145.77L276.29 143.69L279.7 141.74L283.18 139.95L286.71 138.29L290.29 136.78L293.93 135.41L297.61 134.19L301.34 133.11L305.12 132.17L308.94 131.37L312.79 130.72L316.69 130.21L320.63 129.85L324.6 129.62L328.6 129.55L332.63 129.61L336.69 129.82Z" id="b2fR3f8gOp"></path><path d="M401.81 497.77C401.81 512.61 389.22 524.65 373.71 524.65C358.2 524.65 345.61 512.61 345.61 497.77C345.61 482.94 358.2 470.89 373.71 470.89C389.22 470.89 401.81 482.94 401.81 497.77Z" id="dDmmAEvLd"></path></defs><g><g><g><use xlink:href="#baJUVuusM" opacity="1" fill="#000000" fill-opacity="0.2"></use><g><use xlink:href="#baJUVuusM" opacity="1" fill-opacity="0" stroke="#000000" stroke-width="1" stroke-opacity="0"></use></g></g><g><use xlink:href="#b2sQp7a3i" opacity="1" fill="#0022bb" fill-opacity="1"></use><g><use xlink:href="#b2sQp7a3i" opacity="1" fill-opacity="0" stroke="#000000" stroke-width="1" stroke-opacity="0"></use></g></g><g><use xlink:href="#dbuz1gMeq" opacity="1" fill="#eeeeff" fill-opacity="1"></use><g><use xlink:href="#dbuz1gMeq" opacity="1" fill-opacity="0" stroke="#000000" stroke-width="1" stroke-opacity="0"></use></g></g><g><use xlink:href="#b2fR3f8gOp" opacity="1" fill="#0022bb" fill-opacity="1"></use><g><use xlink:href="#b2fR3f8gOp" opacity="1" fill-opacity="0" stroke="#000000" stroke-width="1" stroke-opacity="0"></use></g></g><g><use xlink:href="#dDmmAEvLd" opacity="1" fill="#0022bb" fill-opacity="1"></use></g></g></g></svg>